<?xml version="1.0" encoding="utf-8"?>
<!-- Generator: Adobe Illustrator 18.1.1, SVG Export Plug-In . SVG Version: 6.00 Build 0)  -->
<svg version="1.1" id="Layer_1" xmlns="http://www.w3.org/2000/svg" xmlns:xlink="http://www.w3.org/1999/xlink" x="0px" y="0px"
	 viewBox="0 0 180 180" enable-background="new 0 0 180 180" xml:space="preserve">
<circle fill="#FFFFFF" cx="90.3" cy="89.8" r="90"/>
<g>
	<polyline fill="#D1694E" points="154.4,119.6 167.6,108.9 127.9,108.9 57.4,108.9 17.6,108.9 30.8,119.6 17.6,127.5 57.4,127.5
		127.8,127.5 167.6,127.5 	"/>
	<polygon fill="#E47354" points="145.7,128 39.4,128 34.2,108.4 151,108.4 	"/>
	<path fill="#FFFFFF" d="M134.5,122.3v-5.9h2.1v-1.4h-5.8v1.4h2.1v5.9H134.5z M127.8,122.3V121h-3.6v-1.7h3.5V118h-3.5v-1.5h3.6
		v-1.4h-5.1v7.3H127.8z M119.3,122.3V121h-3.6v-1.7h3.5V118h-3.5v-1.5h3.6v-1.4h-5.1v7.3H119.3z M110.5,122.3v-7.3h-2.2l-1.8,4.5
		l-1.8-4.5h-2.2v7.3h1.5v-5.2l2,5.2h0.7l2-5.2v5.2H110.5z M90.5,116.7c0-0.5,0.3-0.8,0.8-0.8c0.4,0,0.6,0.2,0.6,0.6
		c0,0.5-0.5,0.8-1.1,1.1C90.6,117.4,90.5,117,90.5,116.7z M90.6,121.4c-0.6,0-1.1-0.4-1.1-1.1c0-0.5,0.3-0.8,0.6-1.1
		c0.2,0.3,0.5,0.7,0.7,1c0.2,0.2,0.5,0.6,0.8,0.9C91.3,121.2,91,121.4,90.6,121.4z M94.7,122.3c-0.5-0.5-1-1-1.4-1.5
		c0.4-0.5,0.8-1.2,1-1.7l-1.1-0.5c-0.1,0.4-0.4,0.9-0.7,1.4c-0.2-0.2-0.4-0.5-0.6-0.8c-0.2-0.2-0.4-0.5-0.6-0.8
		c0.9-0.4,1.8-0.9,1.8-2c0-1-0.9-1.5-1.9-1.5c-1.2,0-2.1,0.8-2.1,1.7c0,0.5,0.2,1,0.5,1.6c-0.8,0.4-1.6,1-1.6,2.1
		c0,1.4,1.1,2.1,2.4,2.1c0.8,0,1.4-0.3,2-0.7c0.2,0.2,0.4,0.4,0.5,0.5H94.7z M80.6,122.3l-3.1-3.9l2.9-3.4h-1.9l-2.6,3.2v-3.2h-1.5
		v7.3h1.5v-2.2l0.6-0.7l2.2,2.9H80.6z M71.2,122.3V121h-3.1v-5.9h-1.6v7.3H71.2z M61.1,119.7h-2.3l1.1-3.1L61.1,119.7z M63.7,122.3
		l-2.8-7.3H59l-2.8,7.3h1.8l0.5-1.2h3.1l0.5,1.2H63.7z M52.4,122.3v-5.9h2.1v-1.4h-5.8v1.4h2.1v5.9H52.4z"/>
	<line fill="none" stroke="#000000" stroke-linecap="round" stroke-linejoin="round" x1="69.1" y1="133.6" x2="113.1" y2="133.6"/>
	<path fill="#8B8888" d="M68.9,133.6c-0.8-0.6-1.5-1.3-2-2.1h3.9c0.5,0.9,1.3,1.6,2.2,2.1H68.9z"/>
	<path fill="#525050" d="M73,133.6c-0.9,0.5-1.7,1.3-2.2,2.1h-3.9c0.5-0.8,1.2-1.6,2-2.1H73z"/>
	<path d="M71,131.5c0.5,0.9,1.3,1.6,2.2,2.1c-0.9,0.5-1.7,1.3-2.2,2.1h-0.5c0.6-0.8,1.2-1.6,2-2.1c-0.8-0.6-1.5-1.3-2-2.1H71z"/>
	<path d="M69.7,131.5c0.5,0.9,1.3,1.6,2.2,2.1c-0.9,0.5-1.7,1.3-2.2,2.1h-0.5c0.6-0.8,1.2-1.6,2-2.1c-0.8-0.6-1.5-1.3-2-2.1H69.7z"
		/>
	<path d="M68.5,131.5c0.5,0.9,1.3,1.6,2.2,2.1c-0.9,0.5-1.7,1.3-2.2,2.1H68c0.5-0.8,1.2-1.6,2-2.1c-0.8-0.6-1.5-1.3-2-2.1H68.5z"/>
	<path d="M67.2,131.5c0.5,0.9,1.3,1.6,2.2,2.1c-0.9,0.5-1.7,1.3-2.2,2.1h-0.5c0.6-0.8,1.2-1.6,2-2.1c-0.8-0.6-1.5-1.3-2-2.1H67.2z"
		/>
	<polygon points="111.8,135.4 118.6,133.6 111.8,131.7 	"/>
	<path fill="#231F20" d="M120.6,98.9c0.1,0.5,0.7,1,1.2,1h1.1c0.7,0,1-0.3,1.2-0.8l12.1-31h0.3l12.3,31c0.1,0.4,0.5,0.8,1.2,0.8h1.1
		c0.5,0,1.1-0.4,1.2-1l12.9-46c0.3-1-0.3-1.6-1.2-1.6h-6.3c-0.5,0-1.1,0.5-1.2,1l-7,27.3h-0.3l-11-28.2c-0.1-0.4-0.5-0.8-1.2-0.8
		h-1.2c-0.7,0-1,0.3-1.2,0.8l-10.9,28.2h-0.3l-7.1-27.3c-0.1-0.5-0.7-1-1.2-1h-6.3c-1,0-1.5,0.7-1.2,1.6L120.6,98.9z M70,86.1
		c0-5.5,4.7-7.7,5.8-8.4L86,88.5c-1,1.2-3.7,4-8.8,4C73.2,92.5,70,89.9,70,86.1z M77.9,69.3l-1.5-1.5c-2.1-2.2-3.6-3.8-3.6-6.2
		c0-2.5,1.9-4.7,5.1-4.7c3.6,0,5.8,2.5,5.8,5.1C83.7,66.4,78.9,68.7,77.9,69.3z M61.9,87c0,7,5.8,12.9,14.5,12.9
		c8.9,0,13.7-4.4,14.9-5.8l4.9,5c1.1,1.1,2.2,1,3,0.2l2.8-2.9c1.6-1.6,1-2.3,0.1-3.2L96,87.5c0.9-1.6,3.1-6,4.2-10.9
		c0.1-0.7,0.6-2.2-1.2-2.7l-3.8-1.1c-1.6-0.5-2,0.3-2.3,1.7c-0.5,2.6-1.4,5.4-2.5,7.6l-7.9-7.9c1.4-1.2,8.4-5.4,8.4-12.5
		c0-6.2-5.3-11.2-12.9-11.2c-8.6,0-12.9,5.9-12.9,11.1c-0.1,4,1.9,7,4.7,9.9l1.4,1.6v0.1C70.1,74,61.9,77.9,61.9,87z M27.9,91.1
		V78.9h7.5c3.6,0,7,2.5,7,6c0,3.6-2.7,6.2-6.2,6.2H27.9z M27.9,71.4v-12h7.3c3.5,0,5.9,2.4,5.9,5.8c0,3.4-2.4,6.2-5.9,6.2H27.9z
		 M19.1,97.9c0,0.7,0.5,1.3,1.3,1.3h16.6c8.4,0,14.9-5.5,14.9-13.2c0-6.3-5.3-10-8.9-11.2c3.2-1.5,7.5-5.6,7.5-10.9
		c0-7.2-6.3-12.7-14.5-12.7H20.4c-0.8,0-1.3,0.6-1.3,1.3V97.9z"/>
	<path fill="#FFFFFF" d="M120.6,98.9l-0.1,0c0.2,0.6,0.7,1.1,1.4,1.1l1.1,0c0.7,0,1.1-0.4,1.3-0.8l0,0l12.1-30.9h0.2l12.2,30.9
		c0.2,0.5,0.6,0.8,1.3,0.8l1.1,0c0.6,0,1.2-0.4,1.4-1.1l12.9-46c0.1-0.2,0.1-0.3,0.1-0.5c0-0.8-0.6-1.3-1.4-1.3l-6.3,0
		c-0.6,0-1.2,0.5-1.4,1.1l-7,27.2h-0.1l-10.9-28.1c-0.1-0.4-0.6-0.8-1.3-0.8l-1.2,0c-0.7,0-1.1,0.4-1.3,0.8l-10.9,28.1h-0.1
		l-7.1-27.2c-0.2-0.5-0.7-1-1.4-1.1l-6.3,0c-0.8,0-1.4,0.5-1.4,1.3c0,0.2,0,0.3,0.1,0.5l12.9,46L120.6,98.9l0.1,0l-12.9-46
		c0-0.2-0.1-0.3-0.1-0.4c0-0.6,0.4-1,1.2-1l6.3,0c0.5,0,1,0.4,1.1,0.9l7.1,27.4h0.4h0.1l10.9-28.3c0.1-0.4,0.4-0.7,1-0.7h1.2
		c0.6,0,0.9,0.3,1,0.7l11,28.3h0.4h0.1l7-27.4c0.1-0.4,0.6-0.9,1.1-0.9l6.3,0c0.7,0,1.2,0.4,1.2,1c0,0.1,0,0.3-0.1,0.4l-12.9,46
		c-0.1,0.5-0.6,0.9-1.1,0.9l-1.1,0c-0.6,0-0.9-0.3-1-0.7l-12.3-31.1h-0.4h-0.1L124,99.1l0.1,0L124,99c-0.2,0.4-0.4,0.7-1,0.7l-1.1,0
		c-0.5,0-1-0.4-1.1-0.9L120.6,98.9z M70,86.1h0.1c0-5.4,4.6-7.6,5.8-8.3l-0.1-0.1l-0.1,0.1l10.2,10.8l0.1-0.1l-0.1-0.1
		c-1,1.2-3.7,4-8.7,4c-4,0-7.1-2.6-7.1-6.3H70h-0.1c0,3.8,3.2,6.6,7.3,6.6c5.2,0,7.9-2.9,8.9-4.1l0.1-0.1l-10.4-11l-0.1,0.1
		c-1.1,0.7-5.9,3-5.9,8.5H70z M77.9,69.3L77.9,69.3l-1.4-1.6c-2-2.1-3.5-3.7-3.5-5.9c0,0,0-0.1,0-0.1c0-2.5,1.8-4.5,4.9-4.5
		c3.5,0,5.7,2.5,5.7,5c0,4.1-4.7,6.5-5.8,7.1L77.9,69.3L77.9,69.3L77.9,69.3l0.1,0.1c1-0.6,5.9-2.9,5.9-7.3c0-2.7-2.3-5.3-6-5.3
		c-3.2,0-5.2,2.2-5.2,4.8c0,0,0,0.1,0,0.1c0,2.4,1.6,4,3.6,6.1l1.6,1.6l0.1-0.1L77.9,69.3z M61.9,87h-0.1c0,3.5,1.5,6.8,4,9.2
		c2.6,2.4,6.2,3.9,10.6,3.9c8.9,0,13.8-4.4,15-5.9L91.2,94l-0.1,0.1l4.9,5c0.6,0.6,1.2,0.8,1.7,0.8c0.5,0,1-0.2,1.5-0.6l2.8-2.9
		c0.7-0.7,1-1.3,1-1.8c0-0.6-0.5-1.1-0.9-1.5l-6.1-5.8L96,87.5l0.1,0.1c0.9-1.6,3.1-6,4.3-10.9c0.1-0.3,0.2-0.7,0.2-1.1
		c0-0.7-0.3-1.4-1.4-1.7l-3.8-1.1c-0.3-0.1-0.6-0.1-0.9-0.1c-1,0-1.4,0.8-1.6,2c-0.5,2.6-1.4,5.4-2.5,7.6l0.1,0.1l0.1-0.1l-7.9-7.9
		l-0.1,0.1l0.1,0.1c1.3-1.2,8.4-5.4,8.4-12.6c0-6.2-5.3-11.3-13.1-11.3c-4.3,0-7.6,1.5-9.8,3.6c-2.2,2.1-3.3,5-3.3,7.6
		c0,0.1,0,0.1,0,0.2c0,4,2,6.9,4.7,9.7l1.4,1.5v0.1h0.1l-0.1-0.1c-1.2,0.7-9.5,4.7-9.5,13.9H61.9H62c0-9,8.1-12.9,9.4-13.7l0.1,0
		v-0.2V73L70,71.4c-2.7-2.8-4.6-5.7-4.6-9.6c0-0.1,0-0.1,0-0.2c0-5.1,4.2-11,12.8-11c7.6,0,12.8,4.9,12.8,11c0,7-6.9,11.1-8.3,12.4
		l-0.1,0.1l8.1,8.2l0.1-0.2c1.1-2.2,2-5,2.5-7.6c0.2-1.2,0.5-1.7,1.3-1.8c0.2,0,0.5,0,0.8,0.1l3.8,1.1c1,0.3,1.2,0.9,1.2,1.5
		c0,0.4-0.1,0.8-0.2,1.1c-1.2,4.9-3.3,9.2-4.2,10.9l0,0.1l6.2,5.8c0.5,0.5,0.8,0.9,0.8,1.4c0,0.4-0.2,0.9-1,1.6l-2.8,2.9
		c-0.4,0.3-0.8,0.6-1.3,0.6c-0.5,0-1-0.2-1.5-0.8l-5-5.1l-0.1,0.1c-1.2,1.4-6,5.8-14.8,5.8C67.7,99.7,62,93.9,62,87H61.9z
		 M27.9,91.1H28V79l7.3,0c3.5,0,6.8,2.5,6.9,5.8c0,3.5-2.7,6.1-6,6.1l-8.3,0V91.1H28H27.9v0.1h8.3c3.5,0,6.3-2.7,6.3-6.4
		c0-3.5-3.5-6.1-7.1-6.1l-7.6,0v12.4h0.1V91.1z M27.9,71.4H28V59.5l7.2,0c3.4,0,5.8,2.3,5.8,5.7c0,3.4-2.3,6-5.8,6l-7.3,0V71.4H28
		H27.9v0.1h7.3c3.6,0,6-2.8,6-6.3c0-3.5-2.5-5.9-6-6l-7.5,0v12.2h0.1V71.4z M19.1,97.9h-0.1c0,0.8,0.6,1.4,1.4,1.4h16.6
		c4.2,0,8-1.4,10.7-3.8c2.7-2.4,4.4-5.7,4.4-9.6c0-6.4-5.3-10.1-9-11.3l0,0.1l0.1,0.1c3.3-1.5,7.6-5.7,7.6-11
		c0-7.3-6.4-12.8-14.6-12.8H20.4c-0.8,0-1.4,0.7-1.4,1.4l0,45.3H19.1h0.1V52.5c0-0.6,0.5-1.2,1.2-1.2H36c8.1,0,14.3,5.4,14.3,12.5
		c0,5.2-4.3,9.3-7.5,10.8l-0.3,0.1l0.3,0.1c3.6,1.2,8.8,4.8,8.8,11c0,7.6-6.5,13.1-14.8,13.1H20.4c-0.7,0-1.2-0.6-1.2-1.2H19.1z"/>
	<path fill="#231F20" d="M118,100c0.1,0.5,0.7,1,1.2,1h1.1c0.7,0,1-0.3,1.2-0.8l12.1-31h0.3l12.3,31c0.1,0.4,0.5,0.8,1.2,0.8h1.1
		c0.5,0,1.1-0.4,1.2-1l12.9-46c0.3-1-0.3-1.6-1.2-1.6h-6.3c-0.5,0-1.1,0.5-1.2,1l-7,27.3h-0.3l-11-28.2c-0.1-0.4-0.5-0.8-1.2-0.8
		h-1.2c-0.7,0-1,0.3-1.2,0.8l-10.9,28.2H121l-7.1-27.3c-0.1-0.5-0.7-1-1.2-1h-6.3c-1,0-1.5,0.7-1.2,1.6L118,100z M67.4,87.2
		c0-5.5,4.7-7.7,5.8-8.4l10.2,10.8c-1,1.2-3.7,4-8.8,4C70.6,93.7,67.4,91,67.4,87.2z M75.3,70.4l-1.5-1.5c-2.1-2.2-3.6-3.8-3.6-6.2
		c0-2.5,1.9-4.7,5.1-4.7c3.6,0,5.8,2.5,5.8,5.1C81.1,67.5,76.3,69.8,75.3,70.4z M59.3,88.1c0,7,5.8,12.9,14.5,12.9
		c8.9,0,13.7-4.4,14.9-5.8l4.9,5c1.1,1.1,2.2,1,3,0.2l2.8-2.9c1.6-1.6,1-2.3,0.1-3.2l-6.1-5.8c0.9-1.6,3.1-6,4.2-10.9
		c0.1-0.7,0.6-2.2-1.2-2.7l-3.8-1.1c-1.6-0.5-2,0.3-2.3,1.7c-0.5,2.6-1.4,5.4-2.5,7.6l-7.9-7.9c1.4-1.2,8.4-5.4,8.4-12.5
		c0-6.2-5.3-11.2-12.9-11.2c-8.6,0-12.9,5.9-12.9,11.1c-0.1,4,1.9,7,4.7,9.9l1.4,1.6v0.1C67.5,75.1,59.3,79.1,59.3,88.1z M25.3,92.2
		V80h7.5c3.6,0,7,2.5,7,6c0,3.6-2.7,6.2-6.2,6.2H25.3z M25.3,72.5v-12h7.3c3.5,0,5.9,2.4,5.9,5.8c0,3.4-2.4,6.2-5.9,6.2H25.3z
		 M16.5,99c0,0.7,0.5,1.3,1.3,1.3h16.6c8.4,0,14.9-5.5,14.9-13.2c0-6.3-5.3-10-8.9-11.2c3.2-1.5,7.5-5.6,7.5-10.9
		c0-7.2-6.3-12.7-14.5-12.7H17.8c-0.8,0-1.3,0.6-1.3,1.3V99z"/>
	<path fill="#FFFFFF" d="M118,100l-0.5,0.1c0.2,0.8,0.9,1.3,1.7,1.4l1.1,0c0.9,0,1.4-0.6,1.6-1l0,0l12.1-31l-0.5-0.2v0.5h0.3v-0.5
		l-0.5,0.2l12.3,31l0.5-0.2l-0.5,0.2c0.2,0.6,0.8,1.1,1.7,1.1l1.1,0c0.8,0,1.5-0.6,1.7-1.4l-0.5-0.1l0.5,0.1l12.9-46
		c0.1-0.2,0.1-0.4,0.1-0.6c0-0.5-0.2-0.9-0.5-1.2c-0.3-0.3-0.8-0.5-1.3-0.5l-6.3,0c-0.9,0-1.5,0.6-1.7,1.3l0,0l-7,27.3l0.5,0.1v-0.5
		h-0.3v0.5l0.5-0.2l-11-28.2l-0.5,0.2l0.5-0.2c-0.2-0.6-0.8-1.1-1.7-1.1l-1.2,0c-0.9,0-1.5,0.5-1.7,1.1l0.5,0.2l-0.5-0.2l-10.9,28.2
		l0.5,0.2v-0.5H121v0.5l0.5-0.1l-7.1-27.3l0,0c-0.2-0.7-0.9-1.3-1.7-1.3l-6.3,0c-0.5,0-1,0.1-1.3,0.5c-0.3,0.3-0.5,0.8-0.5,1.2
		c0,0.2,0,0.4,0.1,0.6l12.9,46L118,100l-0.5,0.1L118,100l0.5-0.1l-12.9-46c0-0.1-0.1-0.2-0.1-0.3c0-0.4,0.2-0.6,0.8-0.7l6.3,0
		c0.2,0,0.7,0.3,0.7,0.6l0.5-0.1l-0.5,0.1l7.2,27.7h0.7h0.4l11-28.6l0,0c0.1-0.2,0.2-0.4,0.7-0.4h1.2c0.5,0,0.6,0.2,0.7,0.4l0,0
		l11.1,28.6h0.6h0.4l7.1-27.7l-0.5-0.1l0.5,0.1c0-0.2,0.5-0.6,0.7-0.6l6.3,0c0.6,0,0.8,0.2,0.8,0.7c0,0.1,0,0.2,0,0.3l-12.9,46l0,0
		c-0.1,0.3-0.4,0.6-0.7,0.6l-1.1,0c-0.4,0-0.6-0.2-0.7-0.4l0,0l-12.4-31.4h-1L121,100l0.5,0.2L121,100c-0.2,0.4-0.2,0.4-0.7,0.5
		l-1.1,0c-0.3,0-0.7-0.3-0.7-0.6l0,0L118,100z M67.4,87.2h0.5c0-5.1,4.4-7.3,5.6-8l-0.3-0.4l-0.4,0.4L83.1,90l0.4-0.4L83,89.3
		c-1,1.1-3.5,3.9-8.4,3.9c-3.8,0-6.7-2.5-6.7-5.9H67.4h-0.5c0,2,0.9,3.8,2.3,5c1.4,1.2,3.3,1.9,5.5,1.9c5.3,0,8.2-3,9.2-4.2l0.3-0.4
		L73.3,78.1L73,78.4c-1,0.6-6.1,3-6.1,8.9H67.4z M75.3,70.4l0.4-0.4l-1.5-1.5l-0.4,0.4l0.4-0.4c-2-2.2-3.4-3.6-3.4-5.7
		c0,0,0-0.1,0-0.1l0,0v0c0-2.3,1.6-4.1,4.5-4.1c3.3,0,5.3,2.3,5.3,4.6c0,3.8-4.5,6.1-5.6,6.7L75.3,70.4l0.4-0.4L75.3,70.4l0.3,0.4
		c1-0.6,6-3,6.1-7.6c0-2.9-2.5-5.6-6.3-5.7c-1.7,0-3.1,0.6-4.1,1.5c-1,0.9-1.5,2.3-1.5,3.7h0.5l-0.5,0c0,0.1,0,0.1,0,0.2
		c0,2.6,1.7,4.2,3.7,6.4l0,0l1.8,1.8l0.3-0.2L75.3,70.4z M59.3,88.1h-0.5c0,3.6,1.5,7,4.1,9.4c2.6,2.4,6.4,4,10.8,4
		c9.1,0,14-4.5,15.3-6l-0.4-0.3l-0.4,0.4l4.9,5c0.6,0.6,1.3,1,2,0.9c0.7,0,1.3-0.3,1.7-0.7l0,0l2.8-2.9l-0.4-0.4l0.4,0.4
		c0.8-0.7,1.2-1.4,1.2-2.1c0-0.8-0.6-1.4-1-1.8l0,0l-6.1-5.8l-0.4,0.4l0.5,0.2c0.9-1.7,3.1-6,4.3-11l0,0l0,0c0-0.2,0.2-0.7,0.2-1.2
		c0-0.8-0.4-1.8-1.7-2.1L96.5,75l0.1-0.5l-3.8-1.1c-0.3-0.1-0.7-0.2-1-0.2c-0.6,0-1.1,0.3-1.4,0.7c-0.3,0.4-0.4,1-0.5,1.6
		c-0.5,2.6-1.4,5.3-2.4,7.5l0.5,0.2l0.4-0.4l-7.9-7.9l-0.4,0.4l0.3,0.4c1.3-1.2,8.5-5.4,8.5-12.8c0-3.2-1.4-6.2-3.8-8.3
		c-2.4-2.1-5.7-3.4-9.7-3.4c-4.4,0-7.8,1.5-10.1,3.7c-2.3,2.2-3.4,5.1-3.4,7.9c0,0.1,0,0.1,0,0.2c0,4.1,2.1,7.2,4.8,10l0.4-0.4
		L66.9,73l1.4,1.6l0.4-0.3h-0.5v0.1h0.5l-0.3-0.4c-1.2,0.7-9.7,4.8-9.7,14.2H59.3h0.5c0-8.7,7.9-12.5,9.2-13.3l0.2-0.2v-0.4V74
		l-1.6-1.7l0,0c-2.7-2.8-4.5-5.6-4.5-9.3c0-0.1,0-0.1,0-0.2c0-4.9,4.1-10.6,12.4-10.6C83,52.2,88,57,88,62.8
		c0,6.7-6.7,10.8-8.2,12.1l-0.4,0.4l8.8,8.8l0.3-0.6c1.1-2.2,2-5.1,2.5-7.7c0.1-0.5,0.2-1,0.4-1.2c0.2-0.2,0.2-0.3,0.5-0.3
		c0.2,0,0.4,0,0.7,0.1l3.8,1.1l0,0c0.9,0.3,0.9,0.6,0.9,1.1c0,0.3-0.1,0.7-0.2,1l0.5,0.1l-0.5-0.1c-1.1,4.9-3.3,9.1-4.2,10.8
		l-0.2,0.4l6.4,6l0.4-0.4l-0.4,0.4c0.5,0.5,0.7,0.8,0.7,1.1c0,0.2-0.2,0.7-0.8,1.3l0,0l-2.8,2.9l0.4,0.4l-0.3-0.4
		c-0.3,0.3-0.7,0.5-1,0.5c-0.4,0-0.8-0.2-1.3-0.6l-5.3-5.4l-0.4,0.4c-1.2,1.3-5.8,5.6-14.5,5.6c-8.5,0-13.9-5.7-13.9-12.4H59.3z
		 M25.3,92.2h0.5V80.6h6.9c1.7,0,3.3,0.6,4.5,1.6c1.2,1,2,2.3,2,3.9c0,3.3-2.5,5.7-5.6,5.7l-8.3,0V92.2h0.5H25.3v0.5h8.3
		c1.8,0,3.5-0.7,4.7-1.9c1.2-1.2,2-2.9,1.9-4.8c0-3.8-3.7-6.5-7.5-6.5l-8,0v13.2h0.5V92.2z M25.3,72.5h0.5V61l6.8,0
		c3.2,0,5.3,2.1,5.4,5.3c0,3.2-2.2,5.6-5.4,5.6l-7.3,0V72.5h0.5H25.3V73h7.3c1.9,0,3.5-0.7,4.6-2c1.1-1.2,1.8-2.9,1.8-4.7
		c0-1.8-0.6-3.4-1.8-4.6c-1.1-1.1-2.8-1.8-4.6-1.8l-7.8,0v13h0.5V72.5z M16.5,99h-0.5c0,1,0.8,1.8,1.8,1.8h16.6
		c4.3,0,8.1-1.4,10.9-3.9c2.8-2.4,4.5-5.9,4.5-9.9c0-6.6-5.5-10.5-9.3-11.7l-0.2,0.5l0.2,0.5c3.4-1.6,7.8-5.8,7.8-11.4
		c0-3.7-1.7-7.1-4.3-9.4c-2.7-2.4-6.4-3.8-10.6-3.8H17.8c-1.1,0-1.8,0.9-1.8,1.8l0,45.3H16.5H17V53.7c0-0.4,0.3-0.8,0.8-0.8h15.7
		c7.9,0,13.9,5.3,13.9,12.2c0,5-4.2,9-7.2,10.4L38.9,76l1.3,0.4c3.5,1.1,8.6,4.7,8.5,10.7c0,7.3-6.3,12.7-14.4,12.7H17.8
		c-0.5,0-0.8-0.4-0.8-0.8H16.5z"/>
</g>
</svg>
