<?xml version="1.0" encoding="utf-8"?>
<!-- Generator: Adobe Illustrator 18.1.1, SVG Export Plug-In . SVG Version: 6.00 Build 0)  -->
<svg version="1.1" xmlns="http://www.w3.org/2000/svg" xmlns:xlink="http://www.w3.org/1999/xlink" x="0px" y="0px"
viewBox="0 0 347 347" enable-background="new 0 0 347 347" xml:space="preserve">
<g>
	<polyline fill="#D1684E" points="292.5,230.1 318.1,209.5 241.4,209.5 105.6,209.5 29,209.5 54.4,230.1 28.9,245.4 105.6,245.4
		241.4,245.4 318,245.4 		"/>
	<polygon fill="#E57354" points="275.7,246.3 70.9,246.3 61,208.6 286,208.6 		"/>
	<path fill="#FFFFFF" d="M254.1,235.4V224h4.1v-2.6H247v2.6h4.1v11.4H254.1z M241.4,235.4v-2.6h-6.9v-3.2h6.8v-2.6h-6.8V224h6.9
		v-2.6h-9.9v14H241.4z M224.9,235.4v-2.6H218v-3.2h6.8v-2.6H218V224h6.9v-2.6H215v14H224.9z M208,235.4v-14h-4.2l-3.4,8.8l-3.4-8.8
		h-4.2v14h3v-10.1l3.9,10.1h1.3l3.9-10.1v10.1H208z M169.3,224.6c0-0.9,0.7-1.5,1.5-1.5c0.7,0,1.2,0.4,1.2,1.2c0,1-0.9,1.6-2.1,2.2
		C169.6,225.8,169.3,225.1,169.3,224.6z M169.6,233.5c-1.2,0-2.2-0.8-2.2-2.2c0-1,0.5-1.6,1.2-2.1c0.4,0.7,0.9,1.3,1.4,1.8
		c0.3,0.4,0.9,1.1,1.6,1.8C171,233.3,170.3,233.5,169.6,233.5z M177.5,235.4c-1-1-1.9-1.9-2.7-2.8c0.8-1,1.4-2.2,2-3.4l-2.1-1
		c-0.3,0.8-0.7,1.8-1.3,2.7c-0.4-0.5-0.8-0.9-1.2-1.4c-0.4-0.4-0.8-0.9-1.2-1.5c1.7-0.8,3.4-1.7,3.4-3.8c0-1.9-1.7-3-3.7-3
		c-2.3,0-4,1.5-4,3.4c0,0.9,0.4,2,0.9,3c-1.6,0.8-3,1.9-3,4.1c0,2.7,2.1,4.1,4.6,4.1c1.5,0,2.8-0.5,3.8-1.3c0.4,0.4,0.8,0.8,1,1
		H177.5z M150.3,235.4l-5.9-7.4l5.6-6.6h-3.7l-5,6.2v-6.2h-3v14h3v-4.3l1.1-1.3l4.2,5.6H150.3z M132.1,235.4v-2.6h-5.9v-11.4h-3v14
		H132.1z M112.7,230.4h-4.4l2.2-6L112.7,230.4z M117.8,235.4l-5.4-14h-3.7l-5.4,14h3.4l0.9-2.4h6l0.9,2.4H117.8z M95.9,235.4V224
		h4.1v-2.6H88.8v2.6h4.1v11.4H95.9z"/>

		<line fill="none" stroke="#000000" stroke-width="3" stroke-linecap="round" stroke-linejoin="round" x1="125.2" y1="261.1" x2="209.9" y2="261.1"/>
	<path fill="#8C8888" d="M124.8,261.1c-1.6-1.1-2.9-2.5-3.9-4.1h7.5c1,1.7,2.6,3.1,4.3,4.1H124.8z"/>
	<path fill="#53504F" d="M132.7,261.1c-1.7,1-3.2,2.4-4.3,4.1h-7.5c1.1-1.6,2.3-3,3.9-4.1H132.7z"/>
	<path d="M128.8,257.1c1,1.7,2.6,3.1,4.3,4.1c-1.7,1-3.2,2.4-4.3,4.1h-1c1.1-1.6,2.3-3,3.9-4.1c-1.6-1.1-2.9-2.5-3.9-4.1H128.8z"/>
	<path d="M126.4,257.1c1,1.7,2.6,3.1,4.3,4.1c-1.7,1-3.2,2.4-4.3,4.1h-1c1.1-1.6,2.3-3,3.9-4.1c-1.6-1.1-2.9-2.5-3.9-4.1H126.4z"/>
	<path d="M124,257.1c1,1.7,2.6,3.1,4.3,4.1c-1.7,1-3.2,2.4-4.3,4.1h-1c1.1-1.6,2.3-3,3.9-4.1c-1.6-1.1-2.9-2.5-3.9-4.1H124z"/>
	<path d="M121.5,257.1c1,1.7,2.6,3.1,4.3,4.1c-1.7,1-3.2,2.4-4.3,4.1h-1c1.1-1.6,2.3-3,3.9-4.1c-1.6-1.1-2.9-2.5-3.9-4.1H121.5z"/>
	<polygon points="207.5,264.5 220.5,261 207.5,257.5 		"/>
	<path d="M231.4,195.2c0.3,1.1,1.3,1.8,2.4,1.8h2.1c1.3,0,1.8-0.7,2.2-1.5l23.4-59.8h0.7l23.6,59.8c0.3,0.8,1.1,1.5,2.2,1.5h2.1
		c1.1,0,2.1-0.8,2.4-1.8l24.9-88.7c0.5-1.8-0.5-3.2-2.4-3.2H303c-1.1,0-2.1,0.9-2.4,1.8l-13.5,52.7h-0.5l-21.1-54.4
		c-0.3-0.8-0.9-1.5-2.2-1.5h-2.4c-1.3,0-2,0.7-2.2,1.5l-21,54.4h-0.5l-13.7-52.7c-0.3-0.9-1.3-1.8-2.4-1.8h-12.1
		c-1.8,0-2.9,1.3-2.4,3.2L231.4,195.2z M133.9,170.5c0-10.6,9.1-14.9,11.2-16.2l19.7,20.9c-2,2.2-7.1,7.8-17,7.8
		C140,182.9,133.9,177.8,133.9,170.5z M149.1,138.2l-2.9-2.9c-4-4.2-7-7.3-6.9-11.9c0-4.9,3.7-9,9.8-9c6.9,0,11.2,4.9,11.2,9.9
		C160.3,132.5,151.1,137,149.1,138.2z M118.2,172.2c0,13.5,11.1,24.8,27.9,24.8c17.2,0,26.4-8.4,28.8-11.2l9.5,9.6
		c2.1,2.1,4.2,1.8,5.8,0.4l5.4-5.5c3.2-3,1.8-4.5,0.3-6.1l-11.7-11.1c1.7-3.2,5.9-11.5,8.2-21c0.3-1.3,1.2-4.2-2.2-5.1l-7.3-2.1
		c-3-0.9-3.8,0.5-4.4,3.3c-0.9,5-2.6,10.4-4.8,14.7l-15.2-15.3c2.6-2.4,16.1-10.4,16.1-24c0-11.9-10.2-21.5-24.9-21.5
		c-16.6,0-24.9,11.4-24.9,21.4c-0.1,7.8,3.7,13.5,9,19l2.8,3v0.3C134,147.1,118.2,154.8,118.2,172.2z M52.7,180.1v-23.5h14.4
		c6.9,0,13.5,4.9,13.5,11.5c0,6.9-5.3,12-11.9,12H52.7z M52.7,142.1V119h14.1c6.7,0,11.4,4.6,11.4,11.2c0,6.6-4.6,11.9-11.4,11.9
		H52.7z M35.7,193.2c0,1.3,1.1,2.5,2.5,2.5h31.9c16.1,0,28.8-10.7,28.8-25.5c0-12.1-10.2-19.3-17.2-21.5c6.2-2.9,14.5-10.8,14.5-21
		c0-13.9-12.1-24.4-27.9-24.4H38.2c-1.5,0-2.5,1.2-2.5,2.5V193.2z"/>
	<path fill="#FFFFFF" d="M231.4,195.2l-0.2,0.1c0.3,1.2,1.4,2,2.6,2l2.1,0c1.4,0,2.1-0.8,2.5-1.6l0,0l23.3-59.6h0.3l23.6,59.6
		c0.3,0.9,1.2,1.6,2.5,1.6l2.1,0c1.2,0,2.3-0.9,2.6-2l24.9-88.7c0.1-0.3,0.1-0.7,0.1-1c0-1.5-1.1-2.5-2.8-2.5l-12.1,0
		c-1.2,0-2.3,1-2.6,2l-13.4,52.5h-0.2l-21.1-54.2c-0.3-0.9-1.1-1.6-2.5-1.6l-2.4,0c-1.4,0-2.2,0.7-2.5,1.6l-20.9,54.2h-0.2
		l-13.7-52.5c-0.3-1-1.4-2-2.6-2l-12.1,0c-1.6,0-2.8,1-2.8,2.5c0,0.3,0,0.6,0.1,1l24.9,88.7L231.4,195.2l0.2-0.1l-24.9-88.7
		c-0.1-0.3-0.1-0.6-0.1-0.8c0-1.2,0.8-2,2.3-2l12.1,0c0.9,0,1.9,0.9,2.1,1.7l13.8,52.9h0.7h0.2l21.1-54.5c0.3-0.7,0.8-1.3,2-1.3
		h2.4c1.2,0,1.8,0.6,2,1.3l21.2,54.6h0.7h0.2l13.5-52.9c0.2-0.8,1.2-1.7,2.1-1.7l12.1,0c1.4,0,2.2,0.8,2.3,2c0,0.3,0,0.5-0.1,0.8
		l-24.9,88.7c-0.2,0.9-1.2,1.7-2.1,1.7l-2.1,0c-1.1,0-1.8-0.6-2-1.3l-23.7-60h-0.8h-0.2l-23.4,60l0.2,0.1l-0.2-0.1
		c-0.4,0.8-0.8,1.3-2,1.3l-2.1,0c-0.9,0-1.9-0.7-2.1-1.7L231.4,195.2z M133.9,170.5h0.2c0-10.4,9-14.7,11.1-16l-0.1-0.2l-0.2,0.2
		l19.7,20.9l0.2-0.2l-0.2-0.2c-2,2.2-7,7.7-16.8,7.7c-7.7,0-13.6-5.1-13.6-12.2H133.9h-0.3c0,7.4,6.2,12.6,14.1,12.7
		c10,0,15.2-5.6,17.2-7.9l0.2-0.2l-20-21.2l-0.2,0.1c-2.1,1.3-11.3,5.7-11.3,16.4H133.9z M149.1,138.2l0.2-0.2l-2.9-2.9
		c-3.9-4.1-6.8-7.1-6.8-11.4c0-0.1,0-0.2,0-0.3c0-4.8,3.6-8.7,9.5-8.7c6.7,0,11,4.8,11,9.7c0,8-9.1,12.5-11.1,13.6L149.1,138.2
		l0.2-0.2L149.1,138.2l0.1,0.2c1.9-1.2,11.3-5.7,11.3-14.1c0-5.2-4.5-10.1-11.5-10.2c-6.2,0-10,4.2-10,9.2c0,0.1,0,0.2,0,0.3
		c0,4.6,3.1,7.6,6.9,11.8l3,3l0.2-0.1L149.1,138.2z M118.2,172.2h-0.3c0,6.8,2.8,13.1,7.7,17.6c4.9,4.6,11.9,7.4,20.4,7.4
		c17.2,0,26.6-8.5,29-11.3l-0.2-0.2l-0.2,0.2l9.5,9.6c1.1,1.1,2.2,1.6,3.3,1.6c1,0,2-0.5,2.8-1.2l5.4-5.6c1.4-1.4,2-2.5,2-3.4
		c0-1.2-0.9-2.1-1.7-3L184.2,173l-0.2,0.2l0.2,0.1c1.7-3.2,6-11.5,8.2-21.1c0.1-0.5,0.3-1.3,0.3-2.2c0-1.3-0.6-2.7-2.7-3.3
		l-7.3-2.1c-0.6-0.2-1.2-0.3-1.7-0.3c-1.9,0-2.6,1.6-3,3.8c-0.9,5-2.6,10.4-4.7,14.6l0.2,0.1l0.2-0.2l-15.2-15.3l-0.2,0.2l0.2,0.2
		c2.6-2.3,16.2-10.4,16.2-24.2c0-12-10.3-21.7-25.2-21.8c-8.4,0-14.7,2.9-18.9,7c-4.2,4.1-6.3,9.5-6.3,14.6c0,0.1,0,0.3,0,0.4
		c0,7.7,3.8,13.3,9,18.8l2.7,3v0.2h0.2l-0.1-0.2c-2.3,1.4-18.3,9.2-18.3,26.7H118.2h0.2c0-17.3,15.7-24.9,18.1-26.3l0.1-0.1v-0.4
		v-0.1l-2.8-3.1c-5.2-5.4-8.9-11-8.9-18.5c0-0.1,0-0.3,0-0.4c0-9.9,8.2-21.1,24.7-21.1c14.7,0,24.7,9.5,24.7,21.3
		c0,13.4-13.3,21.4-16,23.8l-0.2,0.2l15.6,15.7l0.2-0.3c2.1-4.3,3.8-9.7,4.8-14.7c0.4-2.2,0.9-3.4,2.5-3.4c0.4,0,0.9,0.1,1.5,0.3
		l7.3,2.1c2,0.6,2.4,1.7,2.4,2.8c0,0.8-0.2,1.5-0.3,2c-2.2,9.5-6.4,17.8-8.2,20.9l-0.1,0.2l11.9,11.2c0.9,0.9,1.6,1.7,1.6,2.6
		c0,0.8-0.5,1.8-1.9,3.1l-5.4,5.5c-0.7,0.7-1.6,1.1-2.5,1.1c-0.9,0-1.9-0.4-3-1.5l-9.7-9.8l-0.2,0.2c-2.3,2.7-11.5,11.1-28.6,11.1
		c-16.7,0-27.6-11.2-27.6-24.6H118.2z M52.7,180.1H53v-23.2l14.1,0c6.8,0,13.2,4.8,13.2,11.2c0,6.7-5.2,11.8-11.6,11.8l-16,0V180.1
		H53H52.7v0.2h16c6.7,0,12.1-5.3,12.1-12.3c0-6.8-6.7-11.7-13.7-11.7l-14.6,0v24h0.3V180.1z M52.7,142.1H53v-22.9l13.9,0
		c6.6,0,11.1,4.5,11.1,11c0,6.5-4.5,11.6-11.1,11.6l-14.1,0V142.1H53H52.7v0.2h14.1c6.9,0,11.6-5.4,11.6-12.1
		c0-6.7-4.8-11.5-11.6-11.5l-14.4,0v23.6h0.3V142.1z M35.7,193.2h-0.2c0,1.5,1.2,2.8,2.8,2.8h31.9c8.1,0,15.4-2.7,20.6-7.3
		c5.2-4.6,8.4-11,8.4-18.5c0-12.3-10.3-19.5-17.3-21.8l-0.1,0.2l0.1,0.2c6.3-2.9,14.7-10.9,14.7-21.2c0-14-12.3-24.6-28.1-24.7
		H38.2c-1.6,0-2.8,1.3-2.8,2.8l0,87.4H35.7h0.2v-87.4c0-1.2,0.9-2.3,2.3-2.3h30.2C84,103.6,96,114,96,127.7
		c0,10-8.2,17.9-14.4,20.8l-0.6,0.3l0.6,0.2c6.9,2.2,17,9.3,17,21.3c0,14.6-12.5,25.2-28.5,25.2H38.2c-1.3,0-2.3-1.1-2.3-2.3H35.7z
		"/>
	<path d="M226.4,197.4c0.3,1.1,1.3,1.8,2.4,1.8h2.1c1.3,0,1.8-0.7,2.2-1.5l23.4-59.8h0.7l23.6,59.8c0.3,0.8,1.1,1.5,2.2,1.5h2.1
		c1.1,0,2.1-0.8,2.4-1.8l24.9-88.7c0.5-1.8-0.5-3.2-2.4-3.2H298c-1.1,0-2.1,0.9-2.4,1.8L282.1,160h-0.5l-21.1-54.4
		c-0.3-0.8-0.9-1.5-2.2-1.5h-2.4c-1.3,0-2,0.7-2.2,1.5l-21,54.4h-0.5l-13.7-52.7c-0.3-0.9-1.3-1.8-2.4-1.8h-12.1
		c-1.8,0-2.9,1.3-2.4,3.2L226.4,197.4z M128.9,172.7c0-10.6,9.1-14.9,11.2-16.2l19.7,20.9c-2,2.2-7.1,7.8-17,7.8
		C135,185.1,128.9,180,128.9,172.7z M144.1,140.4l-2.9-2.9c-4-4.2-7-7.3-6.9-11.9c0-4.9,3.7-9,9.8-9c6.9,0,11.2,4.9,11.2,9.9
		C155.3,134.7,146,139.2,144.1,140.4z M113.2,174.4c0,13.5,11.1,24.8,27.9,24.8c17.2,0,26.4-8.4,28.8-11.2l9.5,9.6
		c2.1,2.1,4.2,1.8,5.8,0.4l5.4-5.5c3.2-3,1.8-4.5,0.3-6.1L179,175.3c1.7-3.2,5.9-11.5,8.2-21c0.3-1.3,1.2-4.2-2.2-5.1l-7.3-2.1
		c-3-0.9-3.8,0.5-4.4,3.3c-0.9,5-2.6,10.4-4.8,14.7l-15.2-15.3c2.6-2.4,16.1-10.4,16.1-24c0-11.9-10.2-21.5-24.9-21.5
		c-16.6,0-24.9,11.4-24.9,21.4c-0.1,7.8,3.7,13.5,9,19l2.8,3v0.3C129,149.3,113.2,157,113.2,174.4z M47.7,182.3v-23.5h14.4
		c6.9,0,13.5,4.9,13.5,11.5c0,6.9-5.3,12-11.9,12H47.7z M47.7,144.3v-23.1h14.1c6.7,0,11.4,4.6,11.4,11.2c0,6.6-4.6,11.9-11.4,11.9
		H47.7z M30.7,195.4c0,1.3,1.1,2.5,2.5,2.5h31.9c16.1,0,28.8-10.7,28.8-25.5c0-12.1-10.2-19.3-17.2-21.5c6.2-2.9,14.5-10.8,14.5-21
		c0-13.9-12.1-24.4-27.9-24.4H33.2c-1.5,0-2.5,1.2-2.5,2.5V195.4z"/>
	<path fill="#FFFFFF" d="M226.4,197.4l-1,0.2c0.4,1.5,1.8,2.6,3.3,2.6l2.1,0c1.7,0.1,2.8-1.1,3.1-2l0,0l23.4-59.8l-0.9-0.4v1h0.7
		v-1l-0.9,0.4l23.6,59.8l0.9-0.4l-0.9,0.3c0.4,1.2,1.6,2.2,3.2,2.1l2.1,0c1.5,0,2.9-1.1,3.3-2.6l-1-0.2l1,0.3l24.9-88.7
		c0.1-0.4,0.2-0.8,0.2-1.2c0-0.9-0.4-1.8-1-2.4c-0.7-0.6-1.5-0.9-2.5-0.9l-12.1,0c-1.6,0.1-2.9,1.2-3.3,2.6l0,0l-13.5,52.7l1,0.2
		v-1h-0.5v1l0.9-0.4l-21.1-54.4l-0.9,0.4l0.9-0.3c-0.3-1.1-1.5-2.2-3.2-2.1l-2.4,0c-1.7-0.1-2.9,1-3.2,2.1l0.9,0.3l-0.9-0.4
		l-21,54.4l0.9,0.4v-1h-0.5v1l1-0.3l-13.7-52.7l0,0c-0.4-1.4-1.7-2.5-3.3-2.6l-12.1,0c-1,0-1.8,0.3-2.5,0.9c-0.7,0.6-1,1.5-1,2.4
		c0,0.4,0.1,0.8,0.2,1.2l24.9,88.7L226.4,197.4l-1,0.2L226.4,197.4l1-0.3l-24.9-88.7c-0.1-0.2-0.1-0.5-0.1-0.6
		c0.1-0.8,0.4-1.2,1.5-1.3l12.1,0c0.5-0.1,1.3,0.7,1.4,1.1l1-0.3l-1,0.3l13.9,53.4h1.3h0.7l21.2-55l0,0c0.2-0.5,0.3-0.7,1.3-0.8
		h2.4c1,0.1,1.1,0.3,1.3,0.8l0,0l21.4,55h1.2h0.8l13.7-53.4l-1-0.2l1,0.3c0.1-0.5,0.9-1.2,1.4-1.1l12.1,0c1.1,0.1,1.5,0.4,1.5,1.3
		c0,0.2,0,0.4-0.1,0.6l-25,88.7l0,0c-0.1,0.6-0.8,1.1-1.4,1.1l-2.1,0c-0.8,0-1.2-0.4-1.3-0.8l0,0L257.9,137h-2l-23.6,60.4l0.9,0.4
		l-0.9-0.4c-0.4,0.7-0.4,0.8-1.3,0.9l-2.1,0c-0.6,0-1.3-0.5-1.4-1.1l0,0L226.4,197.4z M128.9,172.7h1c0-9.9,8.5-14,10.8-15.4
		l-0.5-0.8l-0.7,0.7L159,178l0.7-0.7l-0.8-0.7c-1.9,2.2-6.8,7.4-16.3,7.5c-7.4,0-12.9-4.8-12.9-11.4H128.9h-1
		c0,3.9,1.7,7.3,4.3,9.7c2.7,2.4,6.4,3.7,10.5,3.7c10.3,0,15.8-5.8,17.8-8.1l0.6-0.7l-20.9-22.1l-0.7,0.4
		c-2,1.2-11.7,5.9-11.7,17.1H128.9z M144.1,140.4l0.7-0.7l-2.9-2.9l-0.7,0.7l0.7-0.7c-3.9-4.2-6.6-7-6.6-10.9c0-0.1,0-0.2,0-0.2
		l0,0v0c0-4.4,3.2-7.9,8.8-8c6.4,0,10.2,4.5,10.2,8.9c0.1,7.4-8.6,11.8-10.7,13L144.1,140.4l0.7-0.7L144.1,140.4l0.5,0.9
		c1.9-1.2,11.6-5.7,11.7-14.7c0-5.6-4.9-10.9-12.2-10.9c-3.3,0-6,1.1-7.9,2.9c-1.9,1.8-2.9,4.3-2.9,7h1l-1,0c0,0.1,0,0.2,0,0.3
		c0,5,3.3,8.2,7.1,12.3l0,0l3.5,3.5l0.7-0.4L144.1,140.4z M113.2,174.4h-1c0,7,2.9,13.5,8,18.2c5.1,4.7,12.3,7.6,20.9,7.6
		c17.5,0,27-8.6,29.5-11.6l-0.8-0.7l-0.7,0.7l9.5,9.6c1.2,1.2,2.5,1.8,3.9,1.8c1.3,0,2.4-0.6,3.3-1.4l0,0l5.4-5.6l-0.7-0.7l0.7,0.7
		c1.5-1.4,2.2-2.7,2.2-4c0-1.6-1.1-2.6-2-3.5l0,0l-11.7-11.1l-0.7,0.7l0.9,0.5c1.7-3.2,6-11.6,8.3-21.2l0,0l0,0
		c0.1-0.5,0.3-1.3,0.3-2.3c0.1-1.5-0.8-3.4-3.3-4l-0.3,1l0.3-1l-7.3-2.1c-0.7-0.2-1.3-0.3-1.9-0.3c-1.1,0-2.2,0.5-2.7,1.4
		c-0.6,0.8-0.8,1.8-1,3c-0.9,4.9-2.6,10.3-4.7,14.4l0.9,0.4l0.7-0.7L154.1,149l-0.7,0.7l0.7,0.7c2.4-2.2,16.4-10.5,16.4-24.8
		c0-6.2-2.7-11.9-7.3-16c-4.6-4.1-11.1-6.6-18.7-6.6c-8.5,0-15.1,2.9-19.4,7.2c-4.4,4.3-6.5,9.9-6.5,15.2c0,0.1,0,0.2,0,0.4
		c0,8,4,13.8,9.3,19.3l0.7-0.7l-0.7,0.7l2.8,3l0.7-0.7h-1v0.3h1l-0.5-0.9c-2.3,1.4-18.7,9.3-18.7,27.4H113.2h1
		c0-16.7,15.2-24.2,17.7-25.7l0.5-0.3v-0.8v-0.4l-3-3.3l0,0c-5.1-5.4-8.7-10.7-8.7-17.9c0-0.1,0-0.2,0-0.4
		c0-9.5,7.8-20.4,23.9-20.4c14.4,0,23.9,9.3,23.9,20.5c0,12.9-12.9,20.8-15.8,23.3l-0.8,0.7l16.9,17l0.6-1.2
		c2.2-4.3,3.9-9.8,4.8-14.9c0.2-1.1,0.4-1.8,0.7-2.2c0.3-0.4,0.4-0.5,1.1-0.5c0.3,0,0.7,0.1,1.3,0.2l7.3,2.1l0,0
		c1.7,0.5,1.7,1.1,1.8,2.1c0,0.6-0.2,1.3-0.3,1.9l1,0.2l-1-0.2c-2.2,9.4-6.4,17.6-8.1,20.7l-0.4,0.7l12.3,11.6l0.7-0.7l-0.7,0.7
		c0.9,0.9,1.4,1.5,1.4,2.1c0,0.4-0.3,1.3-1.6,2.6l0,0l-5.4,5.5l0.7,0.7l-0.7-0.7c-0.6,0.6-1.3,0.9-2,0.9c-0.7,0-1.5-0.3-2.4-1.2
		l-10.3-10.4l-0.7,0.8c-2.2,2.6-11.2,10.9-28,10.9c-16.3,0-26.8-10.9-26.9-23.8H113.2z M47.7,182.3h1v-22.5h13.4
		c3.2,0,6.4,1.1,8.7,3c2.3,1.9,3.8,4.5,3.8,7.4c0,6.3-4.8,11-10.9,11l-16,0V182.3h1H47.7v1h16c3.6,0,6.8-1.4,9.1-3.7
		c2.3-2.3,3.8-5.6,3.8-9.3c-0.1-7.3-7.2-12.5-14.5-12.5l-15.4,0v25.5h1V182.3z M47.7,144.3h1v-22.1l13.1,0
		c6.3,0.1,10.3,4.1,10.4,10.2c0,6.1-4.2,10.9-10.4,10.9l-14.1,0V144.3h1H47.7v1h14.1c3.6,0,6.8-1.4,8.9-3.8
		c2.2-2.3,3.4-5.6,3.4-9.1c0-3.5-1.2-6.6-3.4-8.8c-2.2-2.2-5.3-3.4-8.9-3.4l-15.1,0v25.1h1V144.3z M30.7,195.4h-1
		c0,1.8,1.5,3.5,3.5,3.5h31.9c8.3,0,15.7-2.7,21.1-7.4c5.4-4.7,8.7-11.4,8.7-19c0-12.8-10.6-20.1-17.9-22.5l-0.3,1l0.4,0.9
		c6.5-3,15-11.1,15.1-21.9c0-7.2-3.2-13.6-8.4-18.2c-5.2-4.5-12.4-7.3-20.5-7.3H33.2c-2,0-3.5,1.7-3.5,3.5l0,87.4H30.7h1V108
		c0-0.8,0.6-1.5,1.5-1.5h30.2c15.3,0,26.8,10.2,26.9,23.4c0,9.6-8,17.3-13.9,20.1l-2.3,1.1l2.4,0.8c6.7,2.2,16.5,9.1,16.5,20.6
		c0,14.2-12.1,24.4-27.8,24.5H33.2c-0.9,0-1.5-0.7-1.5-1.5H30.7z"/>
</g>
</svg>
